<?xml version="1.0" encoding="utf-8"?>
<!-- Generator: Adobe Illustrator 27.0.1, SVG Export Plug-In . SVG Version: 6.00 Build 0)  -->
<svg version="1.1" id="Spine_Logo" xmlns="http://www.w3.org/2000/svg" xmlns:xlink="http://www.w3.org/1999/xlink" x="0px" y="0px"
	 viewBox="0 0 960 560" style="enable-background:new 0 0 960 560;" xml:space="preserve">
<style type="text/css">
	.st0{fill:#555555;}
	.st1{fill:#FF4000;}
</style>
<path id="e" class="st0" d="M766.2,264.02c0,2.76-0.69,4.72-2.08,5.89c-1.39,1.17-2.97,1.75-4.75,1.75h-62.92
	c0,5.31,0.53,10.09,1.6,14.33s2.84,7.89,5.33,10.93c2.49,3.04,5.72,5.38,9.71,7.01c3.98,1.63,8.85,2.44,14.62,2.44
	c4.55,0,8.6-0.37,12.16-1.11c3.56-0.74,6.63-1.57,9.23-2.5c2.6-0.92,4.73-1.75,6.4-2.49c1.67-0.74,2.94-1.12,3.79-1.12
	c0.5,0,0.94,0.12,1.33,0.37c0.39,0.25,0.69,0.62,0.91,1.12c0.21,0.5,0.37,1.19,0.48,2.07c0.11,0.89,0.16,1.96,0.16,3.24
	c0,0.92-0.04,1.72-0.11,2.39c-0.07,0.67-0.16,1.27-0.27,1.8c-0.11,0.53-0.28,1.01-0.53,1.43c-0.25,0.42-0.57,0.83-0.96,1.22
	c-0.39,0.39-1.54,1.03-3.45,1.91c-1.91,0.89-4.39,1.75-7.43,2.6c-3.04,0.85-6.57,1.61-10.56,2.28c-4,0.67-8.26,1.01-12.79,1.01
	c-7.86,0-14.74-1.1-20.65-3.29c-5.91-2.19-10.88-5.45-14.92-9.77c-4.03-4.32-7.08-9.73-9.13-16.24c-2.05-6.51-3.08-14.08-3.08-22.72
	c0-8.21,1.06-15.59,3.19-22.14c2.12-6.55,5.18-12.1,9.18-16.67c4-4.56,8.83-8.07,14.49-10.51c5.66-2.44,12-3.66,19-3.66
	c7.5,0,13.89,1.2,19.16,3.61c5.27,2.41,9.61,5.65,13.01,9.71c3.4,4.07,5.89,8.85,7.48,14.33c1.59,5.49,2.39,11.34,2.39,17.57V264.02
	z M748.57,258.82c0.21-9.2-1.84-16.42-6.14-21.66c-4.31-5.24-10.7-7.86-19.17-7.86c-4.34,0-8.16,0.81-11.43,2.44
	c-3.28,1.63-6.02,3.79-8.23,6.48c-2.21,2.69-3.92,5.82-5.13,9.4c-1.21,3.58-1.89,7.31-2.03,11.2H748.57z"/>
<path id="n" class="st0" d="M635.31,315.94c0,0.57-0.14,1.05-0.42,1.43c-0.28,0.39-0.74,0.73-1.38,1.01
	c-0.64,0.28-1.52,0.5-2.65,0.64c-1.13,0.14-2.55,0.21-4.25,0.21c-1.77,0-3.22-0.07-4.35-0.21c-1.13-0.14-2.02-0.36-2.65-0.64
	c-0.64-0.28-1.1-0.62-1.38-1.01c-0.28-0.39-0.42-0.87-0.42-1.43v-55.95c0-5.45-0.42-9.84-1.27-13.16c-0.85-3.33-2.09-6.19-3.72-8.6
	c-1.63-2.41-3.73-4.25-6.32-5.52c-2.58-1.27-5.57-1.91-8.97-1.91c-4.39,0-8.78,1.56-13.16,4.67c-4.39,3.12-8.99,7.68-13.8,13.7
	v66.78c0,0.57-0.14,1.05-0.42,1.43c-0.28,0.39-0.74,0.73-1.38,1.01c-0.64,0.28-1.52,0.5-2.65,0.64c-1.13,0.14-2.58,0.21-4.35,0.21
	c-1.7,0-3.12-0.07-4.25-0.21c-1.13-0.14-2.04-0.36-2.71-0.64c-0.67-0.28-1.13-0.62-1.38-1.01c-0.25-0.39-0.37-0.87-0.37-1.43v-95.55
	c0-0.57,0.11-1.04,0.32-1.43c0.21-0.39,0.64-0.74,1.27-1.06c0.64-0.32,1.45-0.53,2.44-0.64c0.99-0.11,2.3-0.16,3.93-0.16
	c1.56,0,2.85,0.05,3.88,0.16c1.03,0.11,1.82,0.32,2.39,0.64c0.57,0.32,0.97,0.67,1.22,1.06c0.25,0.39,0.37,0.87,0.37,1.43v12.63
	c5.38-6.02,10.74-10.42,16.08-13.22c5.34-2.79,10.74-4.19,16.19-4.19c6.37,0,11.73,1.08,16.08,3.24c4.35,2.16,7.87,5.04,10.56,8.65
	c2.69,3.61,4.62,7.84,5.79,12.69c1.17,4.85,1.75,10.67,1.75,17.46V315.94z"/>
<g id="i">
	<path class="st1" d="M425.85,208.92c0.48,14.6,10.59,22.71,30.75,25.86c17.08,2.68,32.49,1.32,37.52-13.32
		c9.8-28.54-13.46-21.44-33.61-24.61C440.35,193.68,425.08,185.46,425.85,208.92z"/>
	<path class="st1" d="M431.91,268.88c1.87,10.9,12.03,17.15,27.58,16.73c15.55-0.43,27.15-6.5,28.76-18.26
		c2.98-21.77-14.17-13.35-29.72-12.93C442.97,254.85,428.22,247.49,431.91,268.88z"/>
	<path class="st1" d="M452.14,318.79c3.09,8.14,11.56,11.58,23.01,9.13c11.44-2.44,19.35-6.23,18.71-15.51
		c-1.16-17.17-12.47-11.77-23.91-9.32C458.5,305.52,446.11,302.81,452.14,318.79z"/>
	<path class="st1" d="M461.96,356.83c0.9,6.87,6.84,10.92,16.14,10.85c9.32-0.08,16.37-3.75,17.57-11.11
		c2.24-13.63-8.18-8.56-17.49-8.48C468.86,348.16,460.19,343.35,461.96,356.83z"/>
</g>
<path id="p" class="st0" d="M380.57,266.68c0,8.35-0.9,15.86-2.71,22.51c-1.81,6.65-4.46,12.3-7.96,16.93
	c-3.5,4.64-7.84,8.21-13.01,10.72c-5.17,2.51-11.08,3.77-17.73,3.77c-2.83,0-5.45-0.28-7.86-0.85c-2.41-0.57-4.76-1.45-7.06-2.65
	c-2.3-1.2-4.58-2.72-6.85-4.56c-2.27-1.84-4.67-4-7.22-6.48v47.77c0,0.57-0.14,1.06-0.42,1.49c-0.28,0.42-0.74,0.78-1.38,1.06
	c-0.64,0.28-1.52,0.49-2.65,0.64c-1.13,0.14-2.58,0.21-4.35,0.21c-1.7,0-3.12-0.07-4.25-0.21c-1.13-0.14-2.04-0.35-2.71-0.64
	c-0.67-0.28-1.13-0.64-1.38-1.06c-0.25-0.42-0.37-0.92-0.37-1.49V220.39c0-0.64,0.11-1.15,0.32-1.54c0.21-0.39,0.64-0.72,1.27-1.01
	c0.64-0.28,1.45-0.48,2.44-0.58c0.99-0.11,2.19-0.16,3.61-0.16c1.49,0,2.71,0.05,3.66,0.16c0.96,0.11,1.75,0.3,2.39,0.58
	c0.64,0.28,1.08,0.62,1.33,1.01c0.25,0.39,0.37,0.9,0.37,1.54v12.85c2.9-2.97,5.7-5.56,8.39-7.75c2.69-2.19,5.4-4.02,8.12-5.47
	c2.72-1.45,5.52-2.55,8.39-3.29c2.87-0.74,5.89-1.11,9.08-1.11c6.94,0,12.85,1.35,17.73,4.03c4.88,2.69,8.86,6.37,11.94,11.04
	c3.08,4.67,5.32,10.1,6.74,16.3C379.86,253.18,380.57,259.74,380.57,266.68z M362.41,268.69c0-4.88-0.38-9.61-1.12-14.17
	c-0.75-4.57-2.03-8.62-3.85-12.16c-1.82-3.54-4.25-6.37-7.32-8.49c-3.06-2.12-6.87-3.18-11.43-3.18c-2.28,0-4.52,0.34-6.73,1.01
	c-2.21,0.67-4.45,1.73-6.73,3.18c-2.28,1.45-4.66,3.36-7.16,5.73c-2.49,2.37-5.13,5.29-7.9,8.76v38.01
	c4.84,5.88,9.44,10.37,13.78,13.48c4.34,3.12,8.9,4.67,13.67,4.67c4.41,0,8.21-1.06,11.38-3.18c3.17-2.12,5.73-4.95,7.69-8.49
	c1.96-3.54,3.4-7.5,4.33-11.89C361.95,277.58,362.41,273.15,362.41,268.69z"/>
<path id="s" class="st0" d="M250.21,289.93c0,4.88-0.9,9.24-2.71,13.06c-1.8,3.82-4.37,7.04-7.7,9.66
	c-3.33,2.62-7.29,4.6-11.89,5.95c-4.6,1.34-9.66,2.02-15.18,2.02c-3.4,0-6.64-0.27-9.71-0.8c-3.08-0.53-5.84-1.2-8.28-2.02
	c-2.44-0.81-4.51-1.66-6.21-2.55c-1.7-0.88-2.94-1.68-3.72-2.39c-0.78-0.71-1.35-1.7-1.7-2.97c-0.35-1.27-0.53-3.01-0.53-5.2
	c0-1.34,0.07-2.48,0.21-3.4c0.14-0.92,0.32-1.66,0.53-2.23c0.21-0.57,0.51-0.97,0.9-1.22c0.39-0.25,0.83-0.37,1.33-0.37
	c0.78,0,1.93,0.48,3.45,1.43c1.52,0.96,3.4,2,5.63,3.13c2.23,1.13,4.87,2.18,7.91,3.13c3.04,0.96,6.55,1.43,10.51,1.43
	c2.97,0,5.66-0.32,8.07-0.96c2.41-0.64,4.49-1.57,6.26-2.81c1.77-1.24,3.13-2.81,4.09-4.72c0.96-1.91,1.43-4.17,1.43-6.79
	c0-2.69-0.69-4.95-2.07-6.79c-1.38-1.84-3.2-3.47-5.47-4.88c-2.27-1.42-4.81-2.67-7.64-3.77c-2.83-1.1-5.75-2.25-8.76-3.45
	c-3.01-1.2-5.95-2.56-8.81-4.09c-2.87-1.52-5.43-3.38-7.7-5.57c-2.27-2.19-4.09-4.81-5.47-7.86c-1.38-3.04-2.07-6.69-2.07-10.94
	c0-3.75,0.73-7.34,2.18-10.78c1.45-3.43,3.63-6.44,6.53-9.02c2.9-2.58,6.53-4.65,10.88-6.21c4.35-1.56,9.43-2.34,15.23-2.34
	c2.55,0,5.1,0.21,7.64,0.64c2.55,0.42,4.85,0.96,6.9,1.59c2.05,0.64,3.8,1.33,5.26,2.07c1.45,0.74,2.55,1.4,3.29,1.96
	c0.74,0.57,1.24,1.06,1.49,1.49c0.25,0.42,0.42,0.9,0.53,1.43c0.11,0.53,0.21,1.19,0.32,1.96c0.11,0.78,0.16,1.74,0.16,2.87
	c0,1.2-0.05,2.25-0.16,3.13c-0.11,0.89-0.28,1.61-0.53,2.18c-0.25,0.57-0.55,0.97-0.9,1.22c-0.36,0.25-0.74,0.37-1.17,0.37
	c-0.64,0-1.56-0.39-2.76-1.17c-1.2-0.78-2.76-1.61-4.67-2.5c-1.91-0.88-4.16-1.71-6.74-2.49c-2.58-0.78-5.54-1.17-8.86-1.17
	c-2.97,0-5.59,0.34-7.86,1.01c-2.27,0.67-4.12,1.63-5.57,2.87c-1.45,1.24-2.55,2.71-3.29,4.41c-0.74,1.7-1.11,3.54-1.11,5.52
	c0,2.76,0.71,5.08,2.12,6.95c1.41,1.88,3.25,3.52,5.52,4.94c2.26,1.42,4.85,2.69,7.75,3.82c2.9,1.13,5.86,2.3,8.86,3.5
	c3.01,1.2,5.98,2.55,8.92,4.03c2.94,1.49,5.54,3.29,7.8,5.41c2.26,2.12,4.09,4.67,5.47,7.64
	C249.52,282.28,250.21,285.82,250.21,289.93z"/>
</svg>
