
<svg version="1.1" xmlns="http://www.w3.org/2000/svg" xmlns:xlink="http://www.w3.org/1999/xlink" x="0px" y="0px"
	 viewBox="0 0 960 560" style="enable-background:new 0 0 960 560;" xml:space="preserve">
<style type="text/css">
	.st0{fill:#222222;}
	.st1{fill:#FF4000;}
</style>
<g id="Layer_2">
	<g>
		<path class="st0" d="M575.69,365.51c0,9.35-7.65,17-17,17h-166c-9.35,0-17-7.65-17-17v-166c0-9.35,7.65-17,17-17h166
			c9.35,0,17,7.65,17,17V365.51z"/>
		<path class="st0" d="M575.69,365.51c0,9.35-7.65,17-17,17h-166c-9.35,0-17-7.65-17-17v-166c0-9.35,7.65-17,17-17h166
			c9.35,0,17,7.65,17,17V365.51z"/>
	</g>
</g>
<g id="Spine_Logo">
	<g id="i">
		<path class="st1" d="M436.41,211.16c0.48,14.6,10.59,22.71,30.75,25.86c17.08,2.68,32.49,1.32,37.52-13.32
			c9.8-28.54-13.46-21.44-33.61-24.61C450.91,195.92,435.64,187.7,436.41,211.16z"/>
		<path class="st1" d="M442.47,271.12c1.87,10.9,12.03,17.15,27.58,16.73c15.55-0.43,27.15-6.5,28.76-18.26
			c2.98-21.77-14.17-13.35-29.72-12.93C453.53,257.09,438.78,249.73,442.47,271.12z"/>
		<path class="st1" d="M462.7,321.03c3.09,8.14,11.56,11.58,23.01,9.13c11.44-2.44,19.35-6.23,18.71-15.51
			c-1.16-17.17-12.47-11.77-23.91-9.32C469.06,307.76,456.67,305.05,462.7,321.03z"/>
		<path class="st1" d="M472.52,359.07c0.9,6.87,6.84,10.92,16.14,10.85c9.32-0.08,16.37-3.75,17.57-11.11
			c2.24-13.63-8.18-8.56-17.49-8.48C479.42,350.4,470.75,345.59,472.52,359.07z"/>
	</g>
</g>
</svg>
